<mxfile host="app.diagrams.net" modified="2021-09-07T08:25:37.091Z" agent="5.0 (Windows NT 10.0; Win64; x64) AppleWebKit/537.36 (KHTML, like Gecko) Chrome/92.0.4515.159 Safari/537.36" etag="gD5eq_lOVXVWYz3rAvBl" version="14.9.6" type="github">
  <diagram id="KgzFzYW3JRcv5cXBahwz" name="Page-1">
    <mxGraphModel dx="1673" dy="2034" grid="1" gridSize="10" guides="1" tooltips="1" connect="1" arrows="1" fold="1" page="1" pageScale="1" pageWidth="850" pageHeight="1100" math="0" shadow="0">
      <root>
        <mxCell id="0" />
        <mxCell id="1" parent="0" />
        <mxCell id="65nMzep6q61FSym4G3b8-38" style="edgeStyle=none;rounded=0;jumpSize=13;orthogonalLoop=1;jettySize=auto;html=1;exitX=0.5;exitY=0;exitDx=0;exitDy=0;entryX=0;entryY=0.5;entryDx=0;entryDy=0;endArrow=none;endFill=0;strokeColor=#FF0000;strokeWidth=3;" parent="1" source="65nMzep6q61FSym4G3b8-1" target="65nMzep6q61FSym4G3b8-17" edge="1">
          <mxGeometry relative="1" as="geometry" />
        </mxCell>
        <mxCell id="sFyQtC-OYI_YycXrSOeD-6" style="rounded=0;orthogonalLoop=1;jettySize=auto;html=1;exitX=0.5;exitY=0;exitDx=0;exitDy=0;entryX=0;entryY=0.5;entryDx=0;entryDy=0;fillColor=#f8cecc;strokeColor=#FF0000;endArrow=none;endFill=0;strokeWidth=3;" edge="1" parent="1" source="65nMzep6q61FSym4G3b8-1" target="sFyQtC-OYI_YycXrSOeD-2">
          <mxGeometry relative="1" as="geometry" />
        </mxCell>
        <mxCell id="65nMzep6q61FSym4G3b8-1" value="&lt;font style=&quot;font-size: 18px&quot;&gt;Borniko Syndicate&lt;/font&gt;" style="rounded=0;whiteSpace=wrap;html=1;" parent="1" vertex="1">
          <mxGeometry x="180" y="125" width="120" height="60" as="geometry" />
        </mxCell>
        <mxCell id="65nMzep6q61FSym4G3b8-3" value="&lt;div&gt;-1&lt;/div&gt;" style="rounded=0;whiteSpace=wrap;html=1;" parent="1" vertex="1">
          <mxGeometry x="300" y="125" width="50" height="30" as="geometry" />
        </mxCell>
        <mxCell id="65nMzep6q61FSym4G3b8-40" style="edgeStyle=none;rounded=0;jumpSize=13;orthogonalLoop=1;jettySize=auto;html=1;exitX=0.5;exitY=1;exitDx=0;exitDy=0;entryX=0.75;entryY=0;entryDx=0;entryDy=0;endArrow=none;endFill=0;strokeWidth=3;strokeColor=#009900;" parent="1" source="65nMzep6q61FSym4G3b8-4" target="65nMzep6q61FSym4G3b8-20" edge="1">
          <mxGeometry relative="1" as="geometry" />
        </mxCell>
        <mxCell id="65nMzep6q61FSym4G3b8-4" value="&lt;font face=&quot;Times New Roman&quot;&gt;&lt;span style=&quot;font-size: 14px&quot;&gt;III&lt;/span&gt;&lt;/font&gt;" style="rounded=0;whiteSpace=wrap;html=1;" parent="1" vertex="1">
          <mxGeometry x="300" y="155" width="50" height="30" as="geometry" />
        </mxCell>
        <mxCell id="65nMzep6q61FSym4G3b8-5" value="&lt;font style=&quot;font-size: 18px&quot;&gt;Ghosts??&lt;/font&gt;" style="rounded=0;whiteSpace=wrap;html=1;" parent="1" vertex="1">
          <mxGeometry x="120" y="250" width="120" height="60" as="geometry" />
        </mxCell>
        <mxCell id="65nMzep6q61FSym4G3b8-6" value="&lt;font style=&quot;font-size: 14px&quot;&gt;0&lt;/font&gt;" style="rounded=0;whiteSpace=wrap;html=1;" parent="1" vertex="1">
          <mxGeometry x="240" y="250" width="50" height="30" as="geometry" />
        </mxCell>
        <mxCell id="65nMzep6q61FSym4G3b8-7" value="&lt;font face=&quot;Times New Roman&quot; style=&quot;font-size: 14px&quot;&gt;II&lt;/font&gt;" style="rounded=0;whiteSpace=wrap;html=1;" parent="1" vertex="1">
          <mxGeometry x="240" y="280" width="50" height="30" as="geometry" />
        </mxCell>
        <mxCell id="65nMzep6q61FSym4G3b8-32" style="edgeStyle=none;rounded=0;orthogonalLoop=1;jettySize=auto;html=1;exitX=0.5;exitY=1;exitDx=0;exitDy=0;entryX=0.5;entryY=0;entryDx=0;entryDy=0;endArrow=none;endFill=0;fillColor=#d5e8d4;jumpSize=13;strokeWidth=3;strokeColor=#009900;" parent="1" source="65nMzep6q61FSym4G3b8-8" target="65nMzep6q61FSym4G3b8-11" edge="1">
          <mxGeometry relative="1" as="geometry" />
        </mxCell>
        <mxCell id="65nMzep6q61FSym4G3b8-8" value="&lt;font style=&quot;font-size: 18px&quot;&gt;Mendicants&lt;/font&gt;" style="rounded=0;whiteSpace=wrap;html=1;" parent="1" vertex="1">
          <mxGeometry x="120" y="390" width="120" height="60" as="geometry" />
        </mxCell>
        <mxCell id="65nMzep6q61FSym4G3b8-36" style="edgeStyle=none;rounded=0;jumpSize=13;orthogonalLoop=1;jettySize=auto;html=1;exitX=1;exitY=1;exitDx=0;exitDy=0;entryX=0.5;entryY=0;entryDx=0;entryDy=0;endArrow=none;endFill=0;strokeColor=#FF0000;strokeWidth=3;" parent="1" source="65nMzep6q61FSym4G3b8-9" target="65nMzep6q61FSym4G3b8-26" edge="1">
          <mxGeometry relative="1" as="geometry" />
        </mxCell>
        <mxCell id="65nMzep6q61FSym4G3b8-9" value="&lt;font style=&quot;font-size: 14px&quot;&gt;0&lt;/font&gt;" style="rounded=0;whiteSpace=wrap;html=1;" parent="1" vertex="1">
          <mxGeometry x="240" y="390" width="50" height="30" as="geometry" />
        </mxCell>
        <mxCell id="65nMzep6q61FSym4G3b8-10" value="&lt;font face=&quot;Times New Roman&quot; style=&quot;font-size: 14px&quot;&gt;III&lt;/font&gt;" style="rounded=0;whiteSpace=wrap;html=1;" parent="1" vertex="1">
          <mxGeometry x="240" y="420" width="50" height="30" as="geometry" />
        </mxCell>
        <mxCell id="65nMzep6q61FSym4G3b8-11" value="&lt;font style=&quot;font-size: 18px&quot;&gt;Lost Legion&lt;/font&gt;" style="rounded=0;whiteSpace=wrap;html=1;" parent="1" vertex="1">
          <mxGeometry x="130" y="530" width="120" height="60" as="geometry" />
        </mxCell>
        <mxCell id="65nMzep6q61FSym4G3b8-35" style="edgeStyle=none;rounded=0;jumpSize=13;orthogonalLoop=1;jettySize=auto;html=1;exitX=1;exitY=1;exitDx=0;exitDy=0;entryX=0.25;entryY=1;entryDx=0;entryDy=0;endArrow=none;endFill=0;strokeWidth=3;strokeColor=#FF0000;" parent="1" source="65nMzep6q61FSym4G3b8-12" target="65nMzep6q61FSym4G3b8-14" edge="1">
          <mxGeometry relative="1" as="geometry" />
        </mxCell>
        <mxCell id="65nMzep6q61FSym4G3b8-37" style="edgeStyle=none;rounded=0;jumpSize=13;orthogonalLoop=1;jettySize=auto;html=1;exitX=1;exitY=0;exitDx=0;exitDy=0;entryX=0.5;entryY=1;entryDx=0;entryDy=0;endArrow=none;endFill=0;strokeColor=#FF0000;strokeWidth=3;" parent="1" source="65nMzep6q61FSym4G3b8-12" target="65nMzep6q61FSym4G3b8-17" edge="1">
          <mxGeometry relative="1" as="geometry" />
        </mxCell>
        <mxCell id="65nMzep6q61FSym4G3b8-12" value="&lt;font style=&quot;font-size: 14px&quot;&gt;0&lt;/font&gt;" style="rounded=0;whiteSpace=wrap;html=1;" parent="1" vertex="1">
          <mxGeometry x="250" y="530" width="50" height="30" as="geometry" />
        </mxCell>
        <mxCell id="65nMzep6q61FSym4G3b8-13" value="&lt;font face=&quot;Times New Roman&quot; style=&quot;font-size: 14px&quot;&gt;V&lt;/font&gt;" style="rounded=0;whiteSpace=wrap;html=1;" parent="1" vertex="1">
          <mxGeometry x="250" y="560" width="50" height="30" as="geometry" />
        </mxCell>
        <mxCell id="65nMzep6q61FSym4G3b8-14" value="&lt;span style=&quot;font-size: 18px&quot;&gt;House Malklaith Loyalists&lt;/span&gt;" style="rounded=0;whiteSpace=wrap;html=1;" parent="1" vertex="1">
          <mxGeometry x="720" y="140" width="120" height="60" as="geometry" />
        </mxCell>
        <mxCell id="65nMzep6q61FSym4G3b8-15" value="&lt;font style=&quot;font-size: 14px&quot;&gt;0&lt;/font&gt;" style="rounded=0;whiteSpace=wrap;html=1;" parent="1" vertex="1">
          <mxGeometry x="840" y="140" width="50" height="30" as="geometry" />
        </mxCell>
        <mxCell id="65nMzep6q61FSym4G3b8-16" value="&lt;font face=&quot;Times New Roman&quot; style=&quot;font-size: 14px&quot;&gt;III&lt;/font&gt;" style="rounded=0;whiteSpace=wrap;html=1;" parent="1" vertex="1">
          <mxGeometry x="840" y="170" width="50" height="30" as="geometry" />
        </mxCell>
        <mxCell id="sFyQtC-OYI_YycXrSOeD-7" style="edgeStyle=none;rounded=0;orthogonalLoop=1;jettySize=auto;html=1;exitX=0.5;exitY=0;exitDx=0;exitDy=0;entryX=0.5;entryY=1;entryDx=0;entryDy=0;endArrow=none;endFill=0;strokeWidth=4;strokeColor=#FF0000;" edge="1" parent="1" source="65nMzep6q61FSym4G3b8-17" target="sFyQtC-OYI_YycXrSOeD-2">
          <mxGeometry relative="1" as="geometry" />
        </mxCell>
        <mxCell id="65nMzep6q61FSym4G3b8-17" value="&lt;span style=&quot;font-size: 18px&quot;&gt;Guild of Engineers&lt;/span&gt;" style="rounded=0;whiteSpace=wrap;html=1;" parent="1" vertex="1">
          <mxGeometry x="430" y="60" width="120" height="60" as="geometry" />
        </mxCell>
        <mxCell id="65nMzep6q61FSym4G3b8-33" style="edgeStyle=none;rounded=0;jumpSize=13;orthogonalLoop=1;jettySize=auto;html=1;exitX=1;exitY=1;exitDx=0;exitDy=0;entryX=0;entryY=0.5;entryDx=0;entryDy=0;endArrow=none;endFill=0;strokeColor=#009900;strokeWidth=3;" parent="1" source="65nMzep6q61FSym4G3b8-18" target="65nMzep6q61FSym4G3b8-14" edge="1">
          <mxGeometry relative="1" as="geometry" />
        </mxCell>
        <mxCell id="65nMzep6q61FSym4G3b8-18" value="&lt;font style=&quot;font-size: 14px&quot;&gt;0&lt;/font&gt;" style="rounded=0;whiteSpace=wrap;html=1;" parent="1" vertex="1">
          <mxGeometry x="550" y="60" width="50" height="30" as="geometry" />
        </mxCell>
        <mxCell id="65nMzep6q61FSym4G3b8-19" value="&lt;font face=&quot;Times New Roman&quot; style=&quot;font-size: 14px&quot;&gt;IV&lt;/font&gt;" style="rounded=0;whiteSpace=wrap;html=1;" parent="1" vertex="1">
          <mxGeometry x="550" y="90" width="50" height="30" as="geometry" />
        </mxCell>
        <mxCell id="65nMzep6q61FSym4G3b8-20" value="&lt;span style=&quot;font-size: 18px&quot;&gt;Yamagata&lt;/span&gt;" style="rounded=0;whiteSpace=wrap;html=1;" parent="1" vertex="1">
          <mxGeometry x="400" y="660" width="120" height="60" as="geometry" />
        </mxCell>
        <mxCell id="65nMzep6q61FSym4G3b8-21" value="-1" style="rounded=0;whiteSpace=wrap;html=1;" parent="1" vertex="1">
          <mxGeometry x="520" y="660" width="50" height="30" as="geometry" />
        </mxCell>
        <mxCell id="65nMzep6q61FSym4G3b8-22" value="&lt;font face=&quot;Times New Roman&quot; style=&quot;font-size: 14px&quot;&gt;II&lt;/font&gt;" style="rounded=0;whiteSpace=wrap;html=1;" parent="1" vertex="1">
          <mxGeometry x="520" y="690" width="50" height="30" as="geometry" />
        </mxCell>
        <mxCell id="65nMzep6q61FSym4G3b8-23" value="&lt;span style=&quot;font-size: 18px&quot;&gt;Independance of Holt&lt;/span&gt;" style="rounded=0;whiteSpace=wrap;html=1;" parent="1" vertex="1">
          <mxGeometry x="780" y="320" width="120" height="60" as="geometry" />
        </mxCell>
        <mxCell id="65nMzep6q61FSym4G3b8-24" value="&lt;font style=&quot;font-size: 14px&quot;&gt;0&lt;/font&gt;" style="rounded=0;whiteSpace=wrap;html=1;" parent="1" vertex="1">
          <mxGeometry x="900" y="320" width="50" height="30" as="geometry" />
        </mxCell>
        <mxCell id="65nMzep6q61FSym4G3b8-25" value="&lt;font face=&quot;Times New Roman&quot; style=&quot;font-size: 14px&quot;&gt;I&lt;/font&gt;" style="rounded=0;whiteSpace=wrap;html=1;" parent="1" vertex="1">
          <mxGeometry x="900" y="350" width="50" height="30" as="geometry" />
        </mxCell>
        <mxCell id="65nMzep6q61FSym4G3b8-26" value="&lt;span style=&quot;font-size: 18px&quot;&gt;Prophets of the Setting Stars&lt;/span&gt;" style="rounded=0;whiteSpace=wrap;html=1;" parent="1" vertex="1">
          <mxGeometry x="700" y="670" width="120" height="60" as="geometry" />
        </mxCell>
        <mxCell id="65nMzep6q61FSym4G3b8-27" value="&lt;div&gt;+1&lt;/div&gt;" style="rounded=0;whiteSpace=wrap;html=1;" parent="1" vertex="1">
          <mxGeometry x="820" y="670" width="50" height="30" as="geometry" />
        </mxCell>
        <mxCell id="65nMzep6q61FSym4G3b8-28" value="&lt;font face=&quot;Times New Roman&quot; style=&quot;font-size: 14px&quot;&gt;II&lt;/font&gt;" style="rounded=0;whiteSpace=wrap;html=1;" parent="1" vertex="1">
          <mxGeometry x="820" y="700" width="50" height="30" as="geometry" />
        </mxCell>
        <mxCell id="65nMzep6q61FSym4G3b8-34" style="edgeStyle=none;rounded=0;jumpSize=13;orthogonalLoop=1;jettySize=auto;html=1;exitX=0.75;exitY=0;exitDx=0;exitDy=0;entryX=0.5;entryY=1;entryDx=0;entryDy=0;endArrow=none;endFill=0;strokeColor=#009900;strokeWidth=3;" parent="1" source="65nMzep6q61FSym4G3b8-29" target="65nMzep6q61FSym4G3b8-23" edge="1">
          <mxGeometry relative="1" as="geometry" />
        </mxCell>
        <mxCell id="65nMzep6q61FSym4G3b8-39" style="edgeStyle=none;rounded=0;jumpSize=13;orthogonalLoop=1;jettySize=auto;html=1;exitX=0;exitY=0;exitDx=0;exitDy=0;entryX=1;entryY=1;entryDx=0;entryDy=0;endArrow=none;endFill=0;strokeColor=#FF0000;strokeWidth=3;" parent="1" source="65nMzep6q61FSym4G3b8-29" target="65nMzep6q61FSym4G3b8-17" edge="1">
          <mxGeometry relative="1" as="geometry" />
        </mxCell>
        <mxCell id="65nMzep6q61FSym4G3b8-29" value="&lt;span style=&quot;font-size: 18px&quot;&gt;Cobalt Syndicate&lt;/span&gt;" style="rounded=0;whiteSpace=wrap;html=1;" parent="1" vertex="1">
          <mxGeometry x="710" y="490" width="120" height="60" as="geometry" />
        </mxCell>
        <mxCell id="65nMzep6q61FSym4G3b8-30" value="+1" style="rounded=0;whiteSpace=wrap;html=1;" parent="1" vertex="1">
          <mxGeometry x="830" y="490" width="50" height="30" as="geometry" />
        </mxCell>
        <mxCell id="65nMzep6q61FSym4G3b8-31" value="&lt;font face=&quot;Times New Roman&quot;&gt;&lt;span style=&quot;font-size: 14px&quot;&gt;I&lt;/span&gt;&lt;/font&gt;" style="rounded=0;whiteSpace=wrap;html=1;" parent="1" vertex="1">
          <mxGeometry x="830" y="520" width="50" height="30" as="geometry" />
        </mxCell>
        <mxCell id="0qpnmVagbFamdHzVR8-X-1" value="Concordiat Knights" style="rounded=0;whiteSpace=wrap;html=1;" parent="1" vertex="1">
          <mxGeometry x="155" y="690" width="120" height="60" as="geometry" />
        </mxCell>
        <mxCell id="0qpnmVagbFamdHzVR8-X-2" value="+1" style="rounded=0;whiteSpace=wrap;html=1;" parent="1" vertex="1">
          <mxGeometry x="275" y="690" width="50" height="30" as="geometry" />
        </mxCell>
        <mxCell id="0qpnmVagbFamdHzVR8-X-3" value="&lt;font face=&quot;Times New Roman&quot; style=&quot;font-size: 14px&quot;&gt;I&lt;/font&gt;" style="rounded=0;whiteSpace=wrap;html=1;" parent="1" vertex="1">
          <mxGeometry x="275" y="720" width="50" height="30" as="geometry" />
        </mxCell>
        <mxCell id="sFyQtC-OYI_YycXrSOeD-1" value="Find mystic to read their map 2/6" style="ellipse;whiteSpace=wrap;html=1;" vertex="1" parent="1">
          <mxGeometry x="90" y="770" width="120" height="80" as="geometry" />
        </mxCell>
        <mxCell id="sFyQtC-OYI_YycXrSOeD-2" value="&lt;span style=&quot;font-size: 18px&quot;&gt;Counter&#39;s Guild&lt;/span&gt;" style="rounded=0;whiteSpace=wrap;html=1;" vertex="1" parent="1">
          <mxGeometry x="440" y="-70" width="120" height="60" as="geometry" />
        </mxCell>
        <mxCell id="sFyQtC-OYI_YycXrSOeD-3" value="&lt;font style=&quot;font-size: 14px&quot;&gt;+1&lt;/font&gt;" style="rounded=0;whiteSpace=wrap;html=1;" vertex="1" parent="1">
          <mxGeometry x="560" y="-70" width="50" height="30" as="geometry" />
        </mxCell>
        <mxCell id="sFyQtC-OYI_YycXrSOeD-4" value="&lt;font face=&quot;Times New Roman&quot; style=&quot;font-size: 14px&quot;&gt;IV&lt;/font&gt;" style="rounded=0;whiteSpace=wrap;html=1;" vertex="1" parent="1">
          <mxGeometry x="560" y="-40" width="50" height="30" as="geometry" />
        </mxCell>
        <mxCell id="sFyQtC-OYI_YycXrSOeD-8" value="Gather data on Engineer guild failings 1/8" style="ellipse;whiteSpace=wrap;html=1;" vertex="1" parent="1">
          <mxGeometry x="640" y="-95" width="120" height="80" as="geometry" />
        </mxCell>
        <mxCell id="sFyQtC-OYI_YycXrSOeD-9" value="Stockpile weapons 2/8" style="ellipse;whiteSpace=wrap;html=1;" vertex="1" parent="1">
          <mxGeometry x="960" y="240" width="120" height="80" as="geometry" />
        </mxCell>
        <mxCell id="sFyQtC-OYI_YycXrSOeD-10" value="Capture Lost LEgion Warp drive 2/8" style="ellipse;whiteSpace=wrap;html=1;" vertex="1" parent="1">
          <mxGeometry x="900" y="60" width="120" height="80" as="geometry" />
        </mxCell>
      </root>
    </mxGraphModel>
  </diagram>
</mxfile>
